<svg xmlns="http://www.w3.org/2000/svg" xmlns:xlink="http://www.w3.org/1999/xlink" version="1.1" id="Capa_1" x="0px" y="0px" viewBox="0 0 539.077 539.077" style="enable-background:new 0 0 539.077 539.077;" xml:space="preserve" width="512px" height="512px">
<g>
	<g>
		<path d="M78.615,494.154c-1.448,0-2.906-0.285-4.299-0.855c-4.201-1.733-6.931-5.835-6.931-10.375v-78.615H33.692    C15.113,404.308,0,389.194,0,370.615v-292c0-18.579,15.113-33.692,33.692-33.692h471.692c18.579,0,33.692,15.113,33.692,33.692    v292c0,18.579-15.113,33.692-33.692,33.692H173.112l-86.556,86.556C84.406,493.013,81.533,494.154,78.615,494.154z M33.692,67.385    c-6.197,0-11.231,5.034-11.231,11.231v292c0,6.186,5.034,11.231,11.231,11.231h44.923c6.208,0,11.231,5.023,11.231,11.231v62.734    l70.675-70.675c2.106-2.106,4.957-3.29,7.941-3.29h336.923c6.186,0,11.231-5.045,11.231-11.231v-292    c0-6.197-5.045-11.231-11.231-11.231H33.692z" fill="#FFFFFF"/>
		<path d="M190.923,247.077c-12.382,0-22.462-10.079-22.462-22.462c0-12.382,10.079-22.462,22.462-22.462    c12.382,0,22.462,10.079,22.462,22.462C213.385,236.998,203.305,247.077,190.923,247.077z" fill="#FFFFFF"/>
		<path d="M370.615,247.077c-12.393,0-22.462-10.079-22.462-22.462c0-12.382,10.068-22.462,22.462-22.462    s22.462,10.079,22.462,22.462C393.077,236.998,383.009,247.077,370.615,247.077z" fill="#FFFFFF"/>
		<path d="M280.769,247.077c-12.382,0-22.462-10.079-22.462-22.462c0-12.382,10.079-22.462,22.462-22.462    c12.393,0,22.462,10.079,22.462,22.462C303.231,236.998,293.163,247.077,280.769,247.077z" fill="#FFFFFF"/>
	</g>
</g>
<g>
</g>
<g>
</g>
<g>
</g>
<g>
</g>
<g>
</g>
<g>
</g>
<g>
</g>
<g>
</g>
<g>
</g>
<g>
</g>
<g>
</g>
<g>
</g>
<g>
</g>
<g>
</g>
<g>
</g>
</svg>
