<svg id="Layer_1" data-name="Layer 1" xmlns="http://www.w3.org/2000/svg" viewBox="0 0 512 512"><title>Artboard 1</title><circle cx="118.2" cy="99.77" r="17.3"/><path d="M484.12,177.37a40.5,40.5,0,0,0-10.39-56.28,40.55,40.55,0,0,0-33.46-63.51H322.6A273.5,273.5,0,0,0,204.24,84.69l-15.51,7.49H173.11V72.7a24.92,24.92,0,0,0-24.89-24.88H24.89A24.91,24.91,0,0,0,0,72.7V315.21a24.91,24.91,0,0,0,24.89,24.88H148.23a24.91,24.91,0,0,0,24.88-24.88V302.15h28.61l49.49,41.4a147.76,147.76,0,0,1,44.91,65.25s9.71,28.59,10,29.29a41.72,41.72,0,0,0,80.4-15.62c0-.16-.06-29.77-.06-29.77a171.58,171.58,0,0,0-15-69.95l-6.76-15.15h106.7a40.57,40.57,0,0,0,23.08-73.94,40.52,40.52,0,0,0-10.38-56.29ZM148.24,72.7l0,242.51H24.89V72.7H148.24ZM487.12,267a15.71,15.71,0,0,1-15.7,15.7H345.68c-9.19,0-11.88,8.74-11.95,9a12.39,12.39,0,0,0,.53,8.68l14.49,32.5a146.94,146.94,0,0,1,12.82,59.87s.06,29.56.06,29.72a16.83,16.83,0,0,1-32,7.25c-.06-.2-10-29-10-29a172.68,172.68,0,0,0-52.47-76.23l-53-44.31a12.42,12.42,0,0,0-8-2.89H173.11V117.07h18.47a12.54,12.54,0,0,0,5.42-1.24l18.07-8.74A248.58,248.58,0,0,1,322.61,82.46H440.27a15.7,15.7,0,1,1,0,31.4H433a12.44,12.44,0,1,0,0,24.88h17.71a15.7,15.7,0,0,1,0,31.4h-7.33a12.45,12.45,0,0,0,0,24.89H461a15.7,15.7,0,0,1,0,31.4h-7.33a12.44,12.44,0,0,0,0,24.88h17.71A15.72,15.72,0,0,1,487.12,267Z"/></svg>