<svg id="Layer_1" data-name="Layer 1" xmlns="http://www.w3.org/2000/svg" viewBox="0 0 512 512"><title>Artboard 1</title><circle cx="110.2" cy="394.61" r="17.3"/><path d="M501.62,301.27a40.42,40.42,0,0,0-7.12-22.93,40.57,40.57,0,0,0-23.08-73.94H364.72l6.76-15.15a171.54,171.54,0,0,0,15-69.95s.06-29.61.06-29.77a41.72,41.72,0,0,0-80.4-15.62c-.28.7-10,29.3-10,29.3a147.79,147.79,0,0,1-44.91,65.24l-49.49,41.4H173.11V196.79a24.91,24.91,0,0,0-24.88-24.88H24.89A24.91,24.91,0,0,0,0,196.79V439.3a24.91,24.91,0,0,0,24.89,24.88H148.22a24.92,24.92,0,0,0,24.89-24.88V419.82h15.62l15.51,7.5a273.64,273.64,0,0,0,118.36,27.1H440.27a40.55,40.55,0,0,0,33.46-63.51,40.5,40.5,0,0,0,10.39-56.28A40.59,40.59,0,0,0,501.62,301.27Zm-353.4,138H24.89V196.79H148.22l0,242.51Zm323.2-178.61H453.71a12.44,12.44,0,0,0,0,24.88H461A15.71,15.71,0,0,1,461,317H443.33a12.44,12.44,0,0,0,0,24.88h7.33a15.7,15.7,0,0,1,0,31.4H433a12.44,12.44,0,0,0,0,24.88h7.33a15.7,15.7,0,1,1,0,31.4H322.61a248.58,248.58,0,0,1-107.54-24.63L197,396.17a12.54,12.54,0,0,0-5.42-1.24H173.11V234.74h33.13a12.43,12.43,0,0,0,8-2.9l53-44.3a172.71,172.71,0,0,0,52.47-76.24s9.9-28.82,10-29a16.83,16.83,0,0,1,32,7.25c0,.16-.06,29.72-.06,29.72a146.91,146.91,0,0,1-12.82,59.87l-14.49,32.5a12.41,12.41,0,0,0-.53,8.69c.07.24,2.76,9,11.95,9H471.42a15.7,15.7,0,0,1,0,31.4Z"/></svg>